<svg xmlns="http://www.w3.org/2000/svg" width="800" height="400" viewBox="0 0 800 400">
  <defs><linearGradient id="g6" x1="0" y1="0" x2="0" y2="1"><stop offset="0%" stop-color="#1a1a2e"/><stop offset="100%" stop-color="#16213e"/></linearGradient></defs>
  <rect width="800" height="400" fill="url(#g6)"/>
  <circle cx="400" cy="60" r="25" fill="#fff" opacity="0.9"/>
  <circle cx="380" cy="65" r="25" fill="#1a1a2e"/>
  <circle cx="100" cy="100" r="2" fill="#fff" opacity="0.6"/>
  <circle cx="200" cy="80" r="1.5" fill="#fff" opacity="0.5"/>
  <circle cx="650" cy="120" r="2" fill="#fff" opacity="0.6"/>
  <circle cx="700" cy="60" r="1" fill="#fff" opacity="0.4"/>
  <circle cx="550" cy="90" r="1.5" fill="#fff" opacity="0.5"/>
  <circle cx="300" cy="130" r="1" fill="#fff" opacity="0.4"/>
  <path d="M0 350 Q200 380 400 360 Q600 340 800 370 L800 400 L0 400Z" fill="#0f3460" opacity="0.5"/>
  <path d="M0 380 Q300 360 500 380 Q700 400 800 390 L800 400 L0 400Z" fill="#0a1628" opacity="0.4"/>
</svg>