<svg xmlns="http://www.w3.org/2000/svg" width="400" height="300" viewBox="0 0 400 300">
  <defs>
    <linearGradient id="bg-persian" x1="0%" y1="0%" x2="100%" y2="100%">
      <stop offset="0%" style="stop-color:#d0021b;stop-opacity:1"/>
      <stop offset="100%" style="stop-color:#a00112;stop-opacity:1"/>
    </linearGradient>
  </defs>
  <rect width="400" height="300" fill="url(#bg-persian)" rx="20"/>
  <ellipse cx="200" cy="130" rx="80" ry="70" fill="#f0e0d0"/>
  <ellipse cx="200" cy="120" rx="75" ry="60" fill="#f5ebe0"/>
  <ellipse cx="200" cy="150" rx="50" ry="40" fill="#e8d5c0"/>
  <ellipse cx="200" cy="110" rx="60" ry="45" fill="#f5ebe0"/>
  <ellipse cx="165" cy="110" rx="28" ry="22" fill="#f5ebe0"/>
  <ellipse cx="235" cy="110" rx="28" ry="22" fill="#f5ebe0"/>
  <ellipse cx="165" cy="105" rx="25" ry="18" fill="#faf2e8"/>
  <ellipse cx="235" cy="105" rx="25" ry="18" fill="#faf2e8"/>
  <circle cx="165" cy="105" r="8" fill="#4a7a3a"/>
  <circle cx="235" cy="105" r="8" fill="#4a7a3a"/>
  <circle cx="168" cy="103" r="2.5" fill="white"/>
  <circle cx="238" cy="103" r="2.5" fill="white"/>
  <ellipse cx="200" cy="125" rx="6" ry="4" fill="#ffb5b5"/>
  <ellipse cx="200" cy="125" rx="3" ry="2" fill="#e88"/>
  <path d="M180 170 Q200 185 220 170" stroke="#4a3520" stroke-width="1.8" fill="none" stroke-linecap="round"/>
  <ellipse cx="140" cy="155" rx="15" ry="20" fill="#f5ebe0"/>
  <ellipse cx="260" cy="155" rx="15" ry="20" fill="#f5ebe0"/>
  <ellipse cx="140" cy="150" rx="12" ry="15" fill="#faf2e8"/>
  <ellipse cx="260" cy="150" rx="12" ry="15" fill="#faf2e8"/>
  <path d="M135 110 Q110 95 100 100 Q90 105 105 120" stroke="#e8d5c0" stroke-width="3" fill="none" stroke-linecap="round"/>
  <path d="M265 110 Q290 95 300 100 Q310 105 295 120" stroke="#e8d5c0" stroke-width="3" fill="none" stroke-linecap="round"/>
  <path d="M155 58 Q165 40 185 35 Q200 32 200 32 Q200 32 215 35 Q235 40 245 58" fill="#f5ebe0" stroke="#e8d5c0" stroke-width="1"/>
  <path d="M160 50 Q165 38 185 33 Q200 30 200 30 Q200 30 215 33 Q235 38 240 50" fill="#faf2e8"/>
  <circle cx="200" cy="30" r="4" fill="#ffb5b5"/>
  <text x="200" y="260" text-anchor="middle" fill="white" font-size="22" font-weight="bold" font-family="sans-serif" letter-spacing="2">波斯猫</text>
</svg>