<svg xmlns="http://www.w3.org/2000/svg" width="400" height="300" viewBox="0 0 400 300"><defs><linearGradient id="bg" x1="0" y1="0" x2="100%" y2="100%"><stop offset="0%" stop-color="#f0a0b0"/><stop offset="100%" stop-color="#f5c0cc"/></linearGradient></defs><rect width="400" height="300" fill="url(#bg)" rx="20"/><ellipse cx="200" cy="180" rx="75" ry="60" fill="#f8d0d8"/><ellipse cx="200" cy="170" rx="65" ry="50" fill="#fce8ec"/><ellipse cx="160" cy="150" rx="25" ry="22" fill="#f8d0d8"/><ellipse cx="240" cy="150" rx="25" ry="22" fill="#f8d0d8"/><ellipse cx="160" cy="150" rx="18" ry="16" fill="#fce8ec"/><ellipse cx="240" cy="150" rx="18" ry="16" fill="#fce8ec"/><ellipse cx="155" cy="160" rx="6" ry="7" fill="#4a2a2a"/><ellipse cx="245" cy="160" rx="6" ry="7" fill="#4a2a2a"/><ellipse cx="200" cy="180" rx="12" ry="8" fill="#f0a0b0"/><ellipse cx="200" cy="180" rx="6" ry="4" fill="#d06070"/><path d="M190 185 Q200 190 210 185" stroke="#4a2a2a" stroke-width="1.5" fill="none"/><ellipse cx="180" cy="120" rx="5" ry="6" fill="#fce8ec"/><ellipse cx="220" cy="120" rx="5" ry="6" fill="#fce8ec"/><circle cx="120" cy="220" r="6" fill="#e8a0b0" opacity="0.5"/><circle cx="280" cy="220" r="6" fill="#e8a0b0" opacity="0.5"/></svg>