<svg xmlns="http://www.w3.org/2000/svg" width="400" height="300" viewBox="0 0 400 300">
  <defs>
    <linearGradient id="bg-husky" x1="0%" y1="0%" x2="100%" y2="100%">
      <stop offset="0%" style="stop-color:#6b7b8d;stop-opacity:1"/>
      <stop offset="100%" style="stop-color:#4a5568;stop-opacity:1"/>
    </linearGradient>
  </defs>
  <rect width="400" height="300" fill="url(#bg-husky)" rx="20"/>
  <ellipse cx="200" cy="160" rx="85" ry="65" fill="#d0d5dc"/>
  <ellipse cx="200" cy="155" rx="80" ry="60" fill="#e8ebf0"/>
  <ellipse cx="200" cy="150" rx="75" ry="55" fill="#f0f2f5"/>
  <ellipse cx="140" cy="115" rx="35" ry="38" fill="#d0d5dc"/>
  <ellipse cx="260" cy="115" rx="35" ry="38" fill="#d0d5dc"/>
  <ellipse cx="140" cy="112" rx="32" ry="34" fill="#e8ebf0"/>
  <ellipse cx="260" cy="112" rx="32" ry="34" fill="#e8ebf0"/>
  <ellipse cx="135" cy="108" rx="28" ry="30" fill="#f0f2f5"/>
  <ellipse cx="265" cy="108" rx="28" ry="30" fill="#f0f2f5"/>
  <circle cx="135" cy="115" r="9" fill="#5ba3d9"/>
  <circle cx="265" cy="115" r="9" fill="#5ba3d9"/>
  <circle cx="138" cy="113" r="3" fill="white"/>
  <circle cx="268" cy="113" r="3" fill="white"/>
  <ellipse cx="200" cy="140" rx="14" ry="10" fill="#4a5568"/>
  <ellipse cx="200" cy="148" rx="12" ry="8" fill="#4a5568"/>
  <ellipse cx="200" cy="143" rx="9" ry="6" fill="#2a3a4e"/>
  <path d="M175 157 Q200 170 225 157" stroke="#4a5568" stroke-width="2.5" fill="none" stroke-linecap="round"/>
  <path d="M190 157 L195 163 L200 157" fill="#e88" stroke="#d66" stroke-width="1"/>
  <path d="M115 180 Q125 195 135 210" stroke="#b0b5bc" stroke-width="5" fill="none" stroke-linecap="round"/>
  <path d="M285 180 Q275 195 265 210" stroke="#b0b5bc" stroke-width="5" fill="none" stroke-linecap="round"/>
  <rect x="155" y="178" width="18" height="28" rx="6" fill="#d0d5dc"/>
  <rect x="227" y="178" width="18" height="28" rx="6" fill="#d0d5dc"/>
  <path d="M150 210 L140 240 L145 242 L155 212" fill="#b0b5bc"/>
  <path d="M250 210 L260 240 L255 242 L245 212" fill="#b0b5bc"/>
  <path d="M105 120 Q90 100 95 90 Q100 80 115 95" stroke="#b0b5bc" stroke-width="3" fill="none" stroke-linecap="round"/>
  <path d="M295 120 Q310 100 305 90 Q300 80 285 95" stroke="#b0b5bc" stroke-width="3" fill="none" stroke-linecap="round"/>
  <ellipse cx="155" cy="80" rx="10" ry="18" fill="#a0a8b0" transform="rotate(-15 155 80)"/>
  <ellipse cx="245" cy="80" rx="10" ry="18" fill="#a0a8b0" transform="rotate(15 245 80)"/>
  <text x="200" y="280" text-anchor="middle" fill="white" font-size="22" font-weight="bold" font-family="sans-serif" letter-spacing="2">西伯利亚哈士奇</text>
</svg>