<svg xmlns="http://www.w3.org/2000/svg" width="400" height="300" viewBox="0 0 400 300">
  <defs>
    <linearGradient id="bg-golden" x1="0%" y1="0%" x2="100%" y2="100%">
      <stop offset="0%" style="stop-color:#f5a623;stop-opacity:1"/>
      <stop offset="100%" style="stop-color:#e8920e;stop-opacity:1"/>
    </linearGradient>
  </defs>
  <rect width="400" height="300" fill="url(#bg-golden)" rx="20"/>
  <ellipse cx="200" cy="210" rx="85" ry="30" fill="#c47b0c"/>
  <ellipse cx="110" cy="160" rx="70" ry="50" fill="#e8a92e"/>
  <ellipse cx="200" cy="145" rx="75" ry="55" fill="#e8a92e"/>
  <ellipse cx="290" cy="160" rx="70" ry="50" fill="#e8a92e"/>
  <ellipse cx="200" cy="145" rx="70" ry="50" fill="#f5c542"/>
  <ellipse cx="200" cy="150" rx="55" ry="40" fill="#f5c542"/>
  <ellipse cx="170" cy="120" rx="22" ry="28" fill="#e8a92e"/>
  <ellipse cx="230" cy="120" rx="22" ry="28" fill="#e8a92e"/>
  <ellipse cx="170" cy="120" rx="18" ry="24" fill="#f5c542"/>
  <ellipse cx="230" cy="120" rx="18" ry="24" fill="#f5c542"/>
  <ellipse cx="168" cy="135" rx="8" ry="10" fill="#4a3520"/>
  <ellipse cx="232" cy="135" rx="8" ry="10" fill="#4a3520"/>
  <ellipse cx="170" cy="133" rx="3" ry="3" fill="white"/>
  <ellipse cx="234" cy="133" rx="3" ry="3" fill="white"/>
  <ellipse cx="200" cy="155" rx="12" ry="8" fill="#4a3520"/>
  <ellipse cx="200" cy="155" rx="8" ry="5" fill="#2a1a0e"/>
  <path d="M185 163 Q200 175 215 163" stroke="#4a3520" stroke-width="2.5" fill="none" stroke-linecap="round"/>
  <path d="M195 163 L200 168 L205 163" fill="#e88" stroke="#d66" stroke-width="1"/>
  <path d="M160 160 Q140 180 130 200" stroke="#c47b0c" stroke-width="6" fill="none" stroke-linecap="round"/>
  <path d="M240 160 Q260 180 270 200" stroke="#c47b0c" stroke-width="6" fill="none" stroke-linecap="round"/>
  <ellipse cx="120" cy="180" rx="25" ry="15" fill="#d4951e"/>
  <ellipse cx="280" cy="180" rx="25" ry="15" fill="#d4951e"/>
  <path d="M145 210 L130 240 L135 240 L150 212" fill="#c47b0c"/>
  <path d="M255 210 L270 240 L265 240 L250 212" fill="#c47b0c"/>
  <text x="200" y="280" text-anchor="middle" fill="white" font-size="22" font-weight="bold" font-family="sans-serif" letter-spacing="2">金毛寻回犬</text>
</svg>