<svg xmlns="http://www.w3.org/2000/svg" width="400" height="300" viewBox="0 0 400 300">
  <defs>
    <linearGradient id="bg-corgi" x1="0%" y1="0%" x2="100%" y2="100%">
      <stop offset="0%" style="stop-color:#f8e71c;stop-opacity:1"/>
      <stop offset="100%" style="stop-color:#e0c800;stop-opacity:1"/>
    </linearGradient>
  </defs>
  <rect width="400" height="300" fill="url(#bg-corgi)" rx="20"/>
  <ellipse cx="200" cy="180" rx="90" ry="60" fill="#d4a030"/>
  <ellipse cx="200" cy="170" rx="85" ry="55" fill="#e8b84a"/>
  <ellipse cx="200" cy="165" rx="80" ry="50" fill="#f0c860"/>
  <ellipse cx="200" cy="160" rx="75" ry="45" fill="#f5d070"/>
  <ellipse cx="200" cy="155" rx="70" ry="40" fill="#fae078"/>
  <ellipse cx="200" cy="145" rx="50" ry="35" fill="#fff0a0"/>
  <ellipse cx="160" cy="110" rx="30" ry="40" fill="#e8b84a"/>
  <ellipse cx="240" cy="110" rx="30" ry="40" fill="#e8b84a"/>
  <ellipse cx="160" cy="108" rx="26" ry="36" fill="#f0c860"/>
  <ellipse cx="240" cy="108" rx="26" ry="36" fill="#f0c860"/>
  <ellipse cx="155" cy="105" rx="22" ry="30" fill="#fae078"/>
  <ellipse cx="245" cy="105" rx="22" ry="30" fill="#fae078"/>
  <ellipse cx="155" cy="115" rx="7" ry="9" fill="#4a3520"/>
  <ellipse cx="245" cy="115" rx="7" ry="9" fill="#4a3520"/>
  <circle cx="157" cy="112" r="2.5" fill="white"/>
  <circle cx="247" cy="112" r="2.5" fill="white"/>
  <ellipse cx="200" cy="140" rx="12" ry="8" fill="#4a3520"/>
  <ellipse cx="200" cy="140" rx="7" ry="4" fill="#2a1a0e"/>
  <ellipse cx="180" cy="142" rx="30" ry="12" fill="#d4a030"/>
  <ellipse cx="220" cy="142" rx="30" ry="12" fill="#d4a030"/>
  <path d="M185 148 Q200 160 215 148" stroke="#4a3520" stroke-width="2.5" fill="none" stroke-linecap="round"/>
  <path d="M100 190 Q110 175 120 190" stroke="#c49020" stroke-width="5" fill="none" stroke-linecap="round"/>
  <path d="M280 190 Q290 175 300 190" stroke="#c49020" stroke-width="5" fill="none" stroke-linecap="round"/>
  <path d="M120 210 L110 240 L115 242 L125 210" stroke="#d4a030" stroke-width="3" fill="none" stroke-linecap="round"/>
  <path d="M280 210 L290 240 L285 242 L275 210" stroke="#d4a030" stroke-width="3" fill="none" stroke-linecap="round"/>
  <path d="M145 170 Q130 155 120 160" stroke="#c49020" stroke-width="4" fill="none"/>
  <path d="M255 170 Q270 155 280 160" stroke="#c49020" stroke-width="4" fill="none"/>
  <rect x="170" y="192" width="18" height="25" rx="6" fill="#d4a030"/>
  <rect x="212" y="192" width="18" height="25" rx="6" fill="#d4a030"/>
  <text x="200" y="280" text-anchor="middle" fill="white" font-size="22" font-weight="bold" font-family="sans-serif" letter-spacing="2">柯基犬</text>
</svg>