<svg xmlns="http://www.w3.org/2000/svg" width="400" height="300" viewBox="0 0 400 300"><defs><linearGradient id="bg" x1="0" y1="0" x2="100%" y2="100%"><stop offset="0%" stop-color="#a0a0b0"/><stop offset="100%" stop-color="#c8c8d8"/></linearGradient></defs><rect width="400" height="300" fill="url(#bg)" rx="20"/><ellipse cx="200" cy="190" rx="65" ry="55" fill="#d8d8e0"/><ellipse cx="200" cy="180" rx="58" ry="48" fill="#e8e8f0"/><ellipse cx="155" cy="150" rx="28" ry="30" fill="#d8d8e0"/><ellipse cx="245" cy="150" rx="28" ry="30" fill="#d8d8e0"/><ellipse cx="155" cy="150" rx="22" ry="24" fill="#e8e8f0"/><ellipse cx="245" cy="150" rx="22" ry="24" fill="#e8e8f0"/><ellipse cx="150" cy="155" rx="8" ry="6" fill="#d8d8e0"/><ellipse cx="250" cy="155" rx="8" ry="6" fill="#d8d8e0"/><ellipse cx="150" cy="160" rx="5" ry="6" fill="#2a2a3a"/><ellipse cx="250" cy="160" rx="5" ry="6" fill="#2a2a3a"/><ellipse cx="200" cy="185" rx="8" ry="5" fill="#b08080"/><path d="M194 187 Q200 191 206 187" stroke="#2a2a3a" stroke-width="1.5" fill="none"/><ellipse cx="180" cy="130" rx="6" ry="8" fill="#e8e8f0"/><ellipse cx="220" cy="130" rx="6" ry="8" fill="#e8e8f0"/><ellipse cx="165" cy="230" rx="35" ry="18" fill="#d8d8e0"/><ellipse cx="235" cy="230" rx="35" ry="18" fill="#d8d8e0"/><ellipse cx="145" cy="140" rx="3" ry="3" fill="#f0f0f8"/><ellipse cx="255" cy="140" rx="3" ry="3" fill="#f0f0f8"/></svg>