<svg xmlns="http://www.w3.org/2000/svg" width="400" height="300" viewBox="0 0 400 300"><defs><linearGradient id="bg" x1="0" y1="0" x2="100%" y2="100%"><stop offset="0%" stop-color="#c0d8a0"/><stop offset="100%" stop-color="#e0ecc0"/></linearGradient></defs><rect width="400" height="300" fill="url(#bg)" rx="20"/><ellipse cx="200" cy="190" rx="55" ry="45" fill="#f0f0e0"/><ellipse cx="200" cy="180" rx="50" ry="42" fill="#f8f8f0"/><ellipse cx="160" cy="140" rx="35" ry="45" fill="#f0f0e0"/><ellipse cx="240" cy="140" rx="35" ry="45" fill="#f0f0e0"/><ellipse cx="160" cy="140" rx="30" ry="40" fill="#f8f8f0"/><ellipse cx="240" cy="140" rx="30" ry="40" fill="#f8f8f0"/><ellipse cx="155" cy="140" rx="10" ry="15" fill="#e8c0c0"/><ellipse cx="245" cy="140" rx="10" ry="15" fill="#e8c0c0"/><ellipse cx="155" cy="145" rx="6" ry="8" fill="#4a2a2a"/><ellipse cx="245" cy="145" rx="6" ry="8" fill="#4a2a2a"/><ellipse cx="200" cy="185" rx="10" ry="6" fill="#e8a0a0"/><ellipse cx="200" cy="185" rx="5" ry="3" fill="#d08080"/><path d="M192 188 Q200 193 208 188" stroke="#4a2a2a" stroke-width="1.5" fill="none"/><ellipse cx="170" cy="220" rx="20" ry="12" fill="#f0f0e0"/><ellipse cx="230" cy="220" rx="20" ry="12" fill="#f0f0e0"/><ellipse cx="200" cy="95" rx="12" ry="10" fill="#f8f8f0"/><ellipse cx="192" cy="90" rx="6" ry="4" fill="#e8c0c0"/><ellipse cx="208" cy="90" rx="6" ry="4" fill="#e8c0c0"/></svg>