<svg xmlns="http://www.w3.org/2000/svg" width="400" height="300" viewBox="0 0 400 300">
  <defs>
    <linearGradient id="bg-british" x1="0%" y1="0%" x2="100%" y2="100%">
      <stop offset="0%" style="stop-color:#6b7b8d;stop-opacity:1"/>
      <stop offset="100%" style="stop-color:#4a5568;stop-opacity:1"/>
    </linearGradient>
  </defs>
  <rect width="400" height="300" fill="url(#bg-british)" rx="20"/>
  <ellipse cx="200" cy="140" rx="85" ry="75" fill="#8899aa"/>
  <ellipse cx="200" cy="135" rx="82" ry="72" fill="#9aabb8"/>
  <ellipse cx="200" cy="130" rx="78" ry="68" fill="#abb8c4"/>
  <ellipse cx="200" cy="125" rx="74" ry="64" fill="#bcc6d0"/>
  <ellipse cx="200" cy="140" rx="55" ry="45" fill="#d0d8e0"/>
  <ellipse cx="165" cy="105" rx="28" ry="24" fill="#bcc6d0"/>
  <ellipse cx="235" cy="105" rx="28" ry="24" fill="#bcc6d0"/>
  <ellipse cx="165" cy="102" rx="24" ry="20" fill="#d0d8e0"/>
  <ellipse cx="235" cy="102" rx="24" ry="20" fill="#d0d8e0"/>
  <circle cx="165" cy="102" r="9" fill="#ffaa22"/>
  <circle cx="235" cy="102" r="9" fill="#ffaa22"/>
  <circle cx="168" cy="100" r="3" fill="white"/>
  <circle cx="238" cy="100" r="3" fill="white"/>
  <ellipse cx="200" cy="125" rx="5" ry="3" fill="#ffb5b5"/>
  <ellipse cx="200" cy="125" rx="3" ry="2" fill="#e88"/>
  <path d="M175 155 Q200 170 225 155" stroke="#4a5568" stroke-width="2" fill="none" stroke-linecap="round"/>
  <ellipse cx="145" cy="145" rx="18" ry="25" fill="#8899aa"/>
  <ellipse cx="255" cy="145" rx="18" ry="25" fill="#8899aa"/>
  <ellipse cx="145" cy="140" rx="15" ry="20" fill="#9aabb8"/>
  <ellipse cx="255" cy="140" rx="15" ry="20" fill="#9aabb8"/>
  <path d="M130 120 Q110 110 100 115" stroke="#8899aa" stroke-width="4" fill="none" stroke-linecap="round"/>
  <path d="M270 120 Q290 110 300 115" stroke="#8899aa" stroke-width="4" fill="none" stroke-linecap="round"/>
  <path d="M160 65 Q175 50 200 48 Q225 50 240 65" fill="#9aabb8" stroke="#8899aa" stroke-width="1"/>
  <path d="M165 60 Q180 48 200 46 Q220 48 235 60" fill="#bcc6d0"/>
  <text x="200" y="260" text-anchor="middle" fill="white" font-size="22" font-weight="bold" font-family="sans-serif" letter-spacing="2">英国短毛猫</text>
</svg>