<svg xmlns="http://www.w3.org/2000/svg" width="400" height="300" viewBox="0 0 400 300"><defs><linearGradient id="bg" x1="0" y1="0" x2="100%" y2="100%"><stop offset="0%" stop-color="#40a0d0"/><stop offset="100%" stop-color="#80c8e8"/></linearGradient></defs><rect width="400" height="300" fill="url(#bg)" rx="20"/><ellipse cx="200" cy="170" rx="50" ry="42" fill="#f0e860"/><ellipse cx="200" cy="160" rx="45" ry="38" fill="#f8f080"/><ellipse cx="180" cy="140" rx="20" ry="22" fill="#70c860"/><ellipse cx="220" cy="140" rx="20" ry="22" fill="#70c860"/><ellipse cx="200" cy="200" rx="30" ry="35" fill="#f0e860"/><ellipse cx="200" cy="195" rx="25" ry="30" fill="#f8f080"/><ellipse cx="175" cy="155" rx="8" ry="10" fill="#f8f8f0"/><ellipse cx="225" cy="155" rx="8" ry="10" fill="#f8f8f0"/><ellipse cx="173" cy="158" rx="4" ry="5" fill="#2a2a4a"/><ellipse cx="227" cy="158" rx="4" ry="5" fill="#2a2a4a"/><path d="M195 170 Q200 175 205 170" stroke="#8a7a30" stroke-width="2" fill="none"/><ellipse cx="200" cy="145" rx="4" ry="4" fill="#2a2a4a"/><path d="M200 145 C210 135 220 135 230 148" stroke="#f0e860" stroke-width="2" fill="none"/><path d="M200 145 C190 135 180 135 170 148" stroke="#f0e860" stroke-width="2" fill="none"/><path d="M155 180 Q130 160 120 170 Q130 185 155 190" fill="#f0e860" opacity="0.6"/><path d="M245 180 Q270 160 280 170 Q270 185 245 190" fill="#f0e860" opacity="0.6"/><ellipse cx="140" cy="210" rx="8" ry="14" fill="#f0e860" opacity="0.5"/><ellipse cx="260" cy="210" rx="8" ry="14" fill="#f0e860" opacity="0.5"/></svg>